<svg xmlns="http://www.w3.org/2000/svg" viewBox="0 0 800 1000" width="800" height="1000" role="img" aria-label="Elizabeth Masterson placeholder">
  <defs>
    <linearGradient id="g_about_portrait_svg" x1="0" y1="0" x2="1" y2="1">
      <stop offset="0" stop-color="#B6BDAB"/>
      <stop offset="1" stop-color="#929C82"/>
    </linearGradient>
  </defs>
  <rect width="800" height="1000" fill="url(#g_about_portrait_svg)"/>
  <rect x="14" y="14" width="772" height="972" fill="none" stroke="#B08D57" stroke-opacity="0.35" stroke-width="1.4"/>
  
        <path d="M228.57142857142858 688.5714285714286 L228.57142857142858 421.9047619047619 A171.42857142857142 171.42857142857142 0 0 1 571.4285714285714 421.9047619047619 L571.4285714285714 688.5714285714286" fill="none" stroke="#B08D57" stroke-width="2.2" stroke-linecap="round" stroke-linejoin="round" opacity="0.7"/>
        <path d="M342.8571428571429 688.5714285714286 q57.14285714285714 -133.33333333333331 0 -209.52380952380952 q-57.14285714285714 76.19047619047619 0 209.52380952380952 Z" fill="#B08D57" opacity="0.12"/>
        <path d="M342.8571428571429 688.5714285714286 q57.14285714285714 -133.33333333333331 0 -209.52380952380952 q-57.14285714285714 76.19047619047619 0 209.52380952380952 Z" fill="none" stroke="#B08D57" stroke-width="2.2" stroke-linecap="round" stroke-linejoin="round" opacity="0.7"/>
        
  <text x="400.0" y="835.0" text-anchor="middle" fill="#B08D57" font-family="Jost, Helvetica, Arial, sans-serif" font-size="14.399999999999999" letter-spacing="4.8" style="text-transform:uppercase">Interior Designer</text>
  <text x="400.0" y="895.0" text-anchor="middle" fill="#2D2D2D" font-family="Georgia, 'Cormorant Garamond', serif" font-size="36.0" font-style="italic">Elizabeth Masterson</text>
  <text x="400.0" y="950.0" text-anchor="middle" fill="rgba(45,45,45,.45)" font-family="Jost, Helvetica, Arial, sans-serif" font-size="10.4" letter-spacing="2">PLACEHOLDER · REPLACE WITH PHOTO · 800×1000</text>
  <g opacity="0.5" transform="translate(730,30) scale(0.7)" fill="none" stroke="#B08D57" stroke-width="2.4" stroke-linecap="round" stroke-linejoin="round">
        <path d="M0 34 L0 2 L16 2 M0 18 L13 18 M0 34 L16 34"/>
        <path d="M26 34 L26 2 L35 24 L44 2 L44 34"/></g>
</svg>