<svg xmlns="http://www.w3.org/2000/svg" viewBox="0 0 1200 800" width="1200" height="800" role="img" aria-label="Kitchen Reimagined placeholder">
  <defs>
    <linearGradient id="g_after_2_svg" x1="0" y1="0" x2="1" y2="1">
      <stop offset="0" stop-color="#E8DBC6"/>
      <stop offset="1" stop-color="#D6BD96"/>
    </linearGradient>
  </defs>
  <rect width="1200" height="800" fill="url(#g_after_2_svg)"/>
  <rect x="14" y="14" width="1172" height="772" fill="none" stroke="#B08D57" stroke-opacity="0.35" stroke-width="1.4"/>
  
        <path d="M600.0 158.47619047619048 l0 66.66666666666666" fill="none" stroke="#B08D57" stroke-width="2.2" stroke-linecap="round" stroke-linejoin="round" opacity="0.7"/>
        <path d="M535.2380952380952 225.14285714285714 l129.52380952380952 0 l-26.666666666666664 72.38095238095238 l-76.19047619047619 0 Z" fill="#B08D57" opacity="0.12"/>
        <path d="M535.2380952380952 225.14285714285714 l129.52380952380952 0 l-26.666666666666664 72.38095238095238 l-76.19047619047619 0 Z" fill="none" stroke="#B08D57" stroke-width="2.2" stroke-linecap="round" stroke-linejoin="round" opacity="0.7"/>
        <path d="M428.57142857142856 482.2857142857143 l342.85714285714283 0" fill="none" stroke="#B08D57" stroke-width="2.2" stroke-linecap="round" stroke-linejoin="round" opacity="0.7"/>
        <path d="M462.8571428571429 482.2857142857143 l0 95.23809523809523 M737.1428571428571 482.2857142857143 l0 95.23809523809523" fill="none" stroke="#B08D57" stroke-width="2.2" stroke-linecap="round" stroke-linejoin="round" opacity="0.7"/>
        
  <text x="600.0" y="668.0" text-anchor="middle" fill="#B08D57" font-family="Jost, Helvetica, Arial, sans-serif" font-size="21.599999999999998" letter-spacing="7.2" style="text-transform:uppercase">After</text>
  <text x="600.0" y="716.0" text-anchor="middle" fill="#2D2D2D" font-family="Georgia, 'Cormorant Garamond', serif" font-size="54.0" font-style="italic">Kitchen Reimagined</text>
  <text x="600.0" y="760.0" text-anchor="middle" fill="rgba(45,45,45,.45)" font-family="Jost, Helvetica, Arial, sans-serif" font-size="15.6" letter-spacing="2">PLACEHOLDER · REPLACE WITH PHOTO · 1200×800</text>
  <g opacity="0.5" transform="translate(1130,30) scale(0.8571428571428571)" fill="none" stroke="#B08D57" stroke-width="2.4" stroke-linecap="round" stroke-linejoin="round">
        <path d="M0 34 L0 2 L16 2 M0 18 L13 18 M0 34 L16 34"/>
        <path d="M26 34 L26 2 L35 24 L44 2 L44 34"/></g>
</svg>