<svg xmlns="http://www.w3.org/2000/svg" viewBox="0 0 1600 1000" width="1600" height="1000" role="img" aria-label="Your hero image placeholder">
  <defs>
    <linearGradient id="g_hero_svg" x1="0" y1="0" x2="1" y2="1">
      <stop offset="0" stop-color="#E7DCCE"/>
      <stop offset="1" stop-color="#D2C0AB"/>
    </linearGradient>
  </defs>
  <rect width="1600" height="1000" fill="url(#g_hero_svg)"/>
  <rect x="14" y="14" width="1572" height="972" fill="none" stroke="#B08D57" stroke-opacity="0.35" stroke-width="1.4"/>
  
        <path d="M585.7142857142858 745.7142857142858 L585.7142857142858 412.3809523809524 A214.28571428571428 214.28571428571428 0 0 1 1014.2857142857142 412.3809523809524 L1014.2857142857142 745.7142857142858" fill="none" stroke="#B08D57" stroke-width="2.2" stroke-linecap="round" stroke-linejoin="round" opacity="0.7"/>
        <path d="M728.5714285714286 745.7142857142858 q71.42857142857143 -166.66666666666666 0 -261.9047619047619 q-71.42857142857143 95.23809523809524 0 261.9047619047619 Z" fill="#B08D57" opacity="0.12"/>
        <path d="M728.5714285714286 745.7142857142858 q71.42857142857143 -166.66666666666666 0 -261.9047619047619 q-71.42857142857143 95.23809523809524 0 261.9047619047619 Z" fill="none" stroke="#B08D57" stroke-width="2.2" stroke-linecap="round" stroke-linejoin="round" opacity="0.7"/>
        
  <text x="800.0" y="835.0" text-anchor="middle" fill="#B08D57" font-family="Jost, Helvetica, Arial, sans-serif" font-size="28.799999999999997" letter-spacing="9.6" style="text-transform:uppercase">Elizabeth Masterson</text>
  <text x="800.0" y="895.0" text-anchor="middle" fill="#2D2D2D" font-family="Georgia, 'Cormorant Garamond', serif" font-size="72.0" font-style="italic">Your hero image</text>
  <text x="800.0" y="950.0" text-anchor="middle" fill="rgba(45,45,45,.45)" font-family="Jost, Helvetica, Arial, sans-serif" font-size="20.8" letter-spacing="2">PLACEHOLDER · REPLACE WITH PHOTO · 1600×1000</text>
  <g opacity="0.5" transform="translate(1530,30) scale(1.1428571428571428)" fill="none" stroke="#B08D57" stroke-width="2.4" stroke-linecap="round" stroke-linejoin="round">
        <path d="M0 34 L0 2 L16 2 M0 18 L13 18 M0 34 L16 34"/>
        <path d="M26 34 L26 2 L35 24 L44 2 L44 34"/></g>
</svg>