<svg xmlns="http://www.w3.org/2000/svg" viewBox="0 0 900 900" width="900" height="900" role="img" aria-label="Lounge Chair placeholder">
  <defs>
    <linearGradient id="g_product_1_svg" x1="0" y1="0" x2="1" y2="1">
      <stop offset="0" stop-color="#C7CDBE"/>
      <stop offset="1" stop-color="#A7B09A"/>
    </linearGradient>
  </defs>
  <rect width="900" height="900" fill="url(#g_product_1_svg)"/>
  <rect x="14" y="14" width="872" height="872" fill="none" stroke="#B08D57" stroke-opacity="0.35" stroke-width="1.4"/>
  
        <path d="M246.42857142857144 499.7142857142857 q0 -107.14285714285714 64.28571428571428 -107.14285714285714 l278.57142857142856 0 q64.28571428571428 0 64.28571428571428 107.14285714285714" fill="none" stroke="#B08D57" stroke-width="2.2" stroke-linecap="round" stroke-linejoin="round" opacity="0.7"/>
        <path d="M246.42857142857144 499.7142857142857 l0 117.85714285714285 l407.1428571428571 0 l0 -117.85714285714285" fill="none" stroke="#B08D57" stroke-width="2.2" stroke-linecap="round" stroke-linejoin="round" opacity="0.7"/>
        <path d="M282.8571428571429 617.5714285714286 l0 75.0 M617.1428571428571 617.5714285714286 l0 75.0" fill="none" stroke="#B08D57" stroke-width="2.2" stroke-linecap="round" stroke-linejoin="round" opacity="0.7"/>
        <rect x="300.0" y="403.2857142857143" width="300.0" height="96.42857142857143" rx="30.0" fill="#B08D57" opacity="0.12"/>
        
  <text x="450.0" y="751.5" text-anchor="middle" fill="#B08D57" font-family="Jost, Helvetica, Arial, sans-serif" font-size="16.2" letter-spacing="5.4" style="text-transform:uppercase">Bernhardt</text>
  <text x="450.0" y="805.5" text-anchor="middle" fill="#2D2D2D" font-family="Georgia, 'Cormorant Garamond', serif" font-size="40.5" font-style="italic">Lounge Chair</text>
  <text x="450.0" y="855.0" text-anchor="middle" fill="rgba(45,45,45,.45)" font-family="Jost, Helvetica, Arial, sans-serif" font-size="11.7" letter-spacing="2">PLACEHOLDER · REPLACE WITH PHOTO · 900×900</text>
  <g opacity="0.5" transform="translate(830,30) scale(0.7)" fill="none" stroke="#B08D57" stroke-width="2.4" stroke-linecap="round" stroke-linejoin="round">
        <path d="M0 34 L0 2 L16 2 M0 18 L13 18 M0 34 L16 34"/>
        <path d="M26 34 L26 2 L35 24 L44 2 L44 34"/></g>
</svg>