<svg xmlns="http://www.w3.org/2000/svg" viewBox="0 0 900 900" width="900" height="900" role="img" aria-label="Table Lamp placeholder">
  <defs>
    <linearGradient id="g_product_2_svg" x1="0" y1="0" x2="1" y2="1">
      <stop offset="0" stop-color="#F7F3EE"/>
      <stop offset="1" stop-color="#EFE9E0"/>
    </linearGradient>
  </defs>
  <rect width="900" height="900" fill="url(#g_product_2_svg)"/>
  <rect x="14" y="14" width="872" height="872" fill="none" stroke="#B08D57" stroke-opacity="0.35" stroke-width="1.4"/>
  
        <path d="M332.14285714285717 264.0 l235.7142857142857 0 l-47.14285714285714 117.85714285714285 l-141.42857142857142 0 Z" fill="#B08D57" opacity="0.12"/>
        <path d="M332.14285714285717 264.0 l235.7142857142857 0 l-47.14285714285714 117.85714285714285 l-141.42857142857142 0 Z" fill="none" stroke="#B08D57" stroke-width="2.2" stroke-linecap="round" stroke-linejoin="round" opacity="0.7"/>
        <path d="M450.0 381.8571428571429 l0 278.57142857142856" fill="none" stroke="#B08D57" stroke-width="2.2" stroke-linecap="round" stroke-linejoin="round" opacity="0.7"/>
        <path d="M364.2857142857143 660.4285714285714 l171.42857142857142 0" fill="none" stroke="#B08D57" stroke-width="2.2" stroke-linecap="round" stroke-linejoin="round" opacity="0.7"/>
        
  <text x="450.0" y="751.5" text-anchor="middle" fill="#B08D57" font-family="Jost, Helvetica, Arial, sans-serif" font-size="16.2" letter-spacing="5.4" style="text-transform:uppercase">Visual Comfort &amp; Co.</text>
  <text x="450.0" y="805.5" text-anchor="middle" fill="#2D2D2D" font-family="Georgia, 'Cormorant Garamond', serif" font-size="40.5" font-style="italic">Table Lamp</text>
  <text x="450.0" y="855.0" text-anchor="middle" fill="rgba(45,45,45,.45)" font-family="Jost, Helvetica, Arial, sans-serif" font-size="11.7" letter-spacing="2">PLACEHOLDER · REPLACE WITH PHOTO · 900×900</text>
  <g opacity="0.5" transform="translate(830,30) scale(0.7)" fill="none" stroke="#B08D57" stroke-width="2.4" stroke-linecap="round" stroke-linejoin="round">
        <path d="M0 34 L0 2 L16 2 M0 18 L13 18 M0 34 L16 34"/>
        <path d="M26 34 L26 2 L35 24 L44 2 L44 34"/></g>
</svg>