<svg xmlns="http://www.w3.org/2000/svg" viewBox="0 0 800 1000" width="800" height="1000" role="img" aria-label="Spa Primary Bath placeholder">
  <defs>
    <linearGradient id="g_project_5_svg" x1="0" y1="0" x2="1" y2="1">
      <stop offset="0" stop-color="#F7F3EE"/>
      <stop offset="1" stop-color="#EFE9E0"/>
    </linearGradient>
  </defs>
  <rect width="800" height="1000" fill="url(#g_project_5_svg)"/>
  <rect x="14" y="14" width="772" height="972" fill="none" stroke="#B08D57" stroke-opacity="0.35" stroke-width="1.4"/>
  
        <rect x="238.0952380952381" y="260.0" width="323.8095238095238" height="380.9523809523809" rx="4" fill="none" stroke="#B08D57" stroke-width="2.2" stroke-linecap="round" stroke-linejoin="round" opacity="0.7"/>
        <path d="M400.0 260.0 l0 380.9523809523809 M238.0952380952381 450.4761904761905 l323.8095238095238 0" fill="none" stroke="#B08D57" stroke-width="2.2" stroke-linecap="round" stroke-linejoin="round" opacity="0.7"/>
        <path d="M238.0952380952381 260.0 q38.095238095238095 190.47619047619045 0 380.9523809523809 M561.9047619047619 260.0 q-38.095238095238095 190.47619047619045 0 380.9523809523809" fill="none" stroke="#B08D57" stroke-width="2.2" stroke-linecap="round" stroke-linejoin="round" opacity="0.7"/>
        
  <text x="400.0" y="835.0" text-anchor="middle" fill="#B08D57" font-family="Jost, Helvetica, Arial, sans-serif" font-size="14.399999999999999" letter-spacing="4.8" style="text-transform:uppercase">Bath</text>
  <text x="400.0" y="895.0" text-anchor="middle" fill="#2D2D2D" font-family="Georgia, 'Cormorant Garamond', serif" font-size="36.0" font-style="italic">Spa Primary Bath</text>
  <text x="400.0" y="950.0" text-anchor="middle" fill="rgba(45,45,45,.45)" font-family="Jost, Helvetica, Arial, sans-serif" font-size="10.4" letter-spacing="2">PLACEHOLDER · REPLACE WITH PHOTO · 800×1000</text>
  <g opacity="0.5" transform="translate(730,30) scale(0.7)" fill="none" stroke="#B08D57" stroke-width="2.4" stroke-linecap="round" stroke-linejoin="round">
        <path d="M0 34 L0 2 L16 2 M0 18 L13 18 M0 34 L16 34"/>
        <path d="M26 34 L26 2 L35 24 L44 2 L44 34"/></g>
</svg>