<svg xmlns="http://www.w3.org/2000/svg" viewBox="0 0 1200 800" width="1200" height="800" role="img" aria-label="Living Room Refresh placeholder">
  <defs>
    <linearGradient id="g_after_1_svg" x1="0" y1="0" x2="1" y2="1">
      <stop offset="0" stop-color="#C7CDBE"/>
      <stop offset="1" stop-color="#A7B09A"/>
    </linearGradient>
  </defs>
  <rect width="1200" height="800" fill="url(#g_after_1_svg)"/>
  <rect x="14" y="14" width="1172" height="772" fill="none" stroke="#B08D57" stroke-opacity="0.35" stroke-width="1.4"/>
  
        <path d="M371.42857142857144 406.0952380952381 q0 -76.19047619047619 53.33333333333333 -76.19047619047619 l350.4761904761905 0 q53.33333333333333 0 53.33333333333333 76.19047619047619" fill="none" stroke="#B08D57" stroke-width="2.2" stroke-linecap="round" stroke-linejoin="round" opacity="0.7"/>
        <path d="M371.42857142857144 406.0952380952381 q-41.904761904761905 0 -41.904761904761905 53.33333333333333 l0 57.14285714285714 l540.952380952381 0 l0 -57.14285714285714 q0 -53.33333333333333 -41.904761904761905 -53.33333333333333" fill="none" stroke="#B08D57" stroke-width="2.2" stroke-linecap="round" stroke-linejoin="round" opacity="0.7"/>
        <path d="M424.76190476190476 516.5714285714286 l0 49.52380952380952 M775.2380952380952 516.5714285714286 l0 49.52380952380952" fill="none" stroke="#B08D57" stroke-width="2.2" stroke-linecap="round" stroke-linejoin="round" opacity="0.7"/>
        <rect x="466.6666666666667" y="352.76190476190476" width="114.28571428571428" height="64.76190476190476" rx="19.047619047619047" fill="#B08D57" opacity="0.12"/>
        <rect x="619.047619047619" y="352.76190476190476" width="114.28571428571428" height="64.76190476190476" rx="19.047619047619047" fill="#B08D57" opacity="0.12"/>
        
  <text x="600.0" y="668.0" text-anchor="middle" fill="#B08D57" font-family="Jost, Helvetica, Arial, sans-serif" font-size="21.599999999999998" letter-spacing="7.2" style="text-transform:uppercase">After</text>
  <text x="600.0" y="716.0" text-anchor="middle" fill="#2D2D2D" font-family="Georgia, 'Cormorant Garamond', serif" font-size="54.0" font-style="italic">Living Room Refresh</text>
  <text x="600.0" y="760.0" text-anchor="middle" fill="rgba(45,45,45,.45)" font-family="Jost, Helvetica, Arial, sans-serif" font-size="15.6" letter-spacing="2">PLACEHOLDER · REPLACE WITH PHOTO · 1200×800</text>
  <g opacity="0.5" transform="translate(1130,30) scale(0.8571428571428571)" fill="none" stroke="#B08D57" stroke-width="2.4" stroke-linecap="round" stroke-linejoin="round">
        <path d="M0 34 L0 2 L16 2 M0 18 L13 18 M0 34 L16 34"/>
        <path d="M26 34 L26 2 L35 24 L44 2 L44 34"/></g>
</svg>