<svg xmlns="http://www.w3.org/2000/svg" viewBox="0 0 800 1000" width="800" height="1000" role="img" aria-label="Jonathan Adler placeholder">
  <defs>
    <linearGradient id="g_designer_2_svg" x1="0" y1="0" x2="1" y2="1">
      <stop offset="0" stop-color="#C7CDBE"/>
      <stop offset="1" stop-color="#A7B09A"/>
    </linearGradient>
  </defs>
  <rect width="800" height="1000" fill="url(#g_designer_2_svg)"/>
  <rect x="14" y="14" width="772" height="972" fill="none" stroke="#B08D57" stroke-opacity="0.35" stroke-width="1.4"/>
  
        <path d="M219.04761904761907 536.1904761904761 q0 -95.23809523809523 57.14285714285714 -95.23809523809523 l247.6190476190476 0 q57.14285714285714 0 57.14285714285714 95.23809523809523" fill="none" stroke="#B08D57" stroke-width="2.2" stroke-linecap="round" stroke-linejoin="round" opacity="0.7"/>
        <path d="M219.04761904761907 536.1904761904761 l0 104.76190476190476 l361.90476190476187 0 l0 -104.76190476190476" fill="none" stroke="#B08D57" stroke-width="2.2" stroke-linecap="round" stroke-linejoin="round" opacity="0.7"/>
        <path d="M251.42857142857144 640.952380952381 l0 66.66666666666666 M548.5714285714286 640.952380952381 l0 66.66666666666666" fill="none" stroke="#B08D57" stroke-width="2.2" stroke-linecap="round" stroke-linejoin="round" opacity="0.7"/>
        <rect x="266.6666666666667" y="450.4761904761905" width="266.66666666666663" height="85.71428571428571" rx="26.666666666666664" fill="#B08D57" opacity="0.12"/>
        
  <text x="400.0" y="835.0" text-anchor="middle" fill="#B08D57" font-family="Jost, Helvetica, Arial, sans-serif" font-size="14.399999999999999" letter-spacing="4.8" style="text-transform:uppercase">Designer</text>
  <text x="400.0" y="895.0" text-anchor="middle" fill="#2D2D2D" font-family="Georgia, 'Cormorant Garamond', serif" font-size="36.0" font-style="italic">Jonathan Adler</text>
  <text x="400.0" y="950.0" text-anchor="middle" fill="rgba(45,45,45,.45)" font-family="Jost, Helvetica, Arial, sans-serif" font-size="10.4" letter-spacing="2">PLACEHOLDER · REPLACE WITH PHOTO · 800×1000</text>
  <g opacity="0.5" transform="translate(730,30) scale(0.7)" fill="none" stroke="#B08D57" stroke-width="2.4" stroke-linecap="round" stroke-linejoin="round">
        <path d="M0 34 L0 2 L16 2 M0 18 L13 18 M0 34 L16 34"/>
        <path d="M26 34 L26 2 L35 24 L44 2 L44 34"/></g>
</svg>