<svg xmlns="http://www.w3.org/2000/svg" viewBox="0 0 800 1000" width="800" height="1000" role="img" aria-label="Collected Family Home placeholder">
  <defs>
    <linearGradient id="g_project_4_svg" x1="0" y1="0" x2="1" y2="1">
      <stop offset="0" stop-color="#E7DCCE"/>
      <stop offset="1" stop-color="#D2C0AB"/>
    </linearGradient>
  </defs>
  <rect width="800" height="1000" fill="url(#g_project_4_svg)"/>
  <rect x="14" y="14" width="772" height="972" fill="none" stroke="#B08D57" stroke-opacity="0.35" stroke-width="1.4"/>
  
        <rect x="266.6666666666667" y="279.04761904761904" width="266.66666666666663" height="323.8095238095238" rx="3" fill="none" stroke="#B08D57" stroke-width="2.2" stroke-linecap="round" stroke-linejoin="round" opacity="0.7"/>
        <rect x="300.95238095238096" y="313.33333333333337" width="198.09523809523807" height="255.2380952380952" fill="#B08D57" opacity="0.12"/>
        <path d="M300.95238095238096 517.1428571428571 l76.19047619047619 -104.76190476190476 l57.14285714285714 66.66666666666666 l64.76190476190476 -76.19047619047619" fill="none" stroke="#B08D57" stroke-width="2.2" stroke-linecap="round" stroke-linejoin="round" opacity="0.7"/>
        <circle cx="457.1428571428571" cy="374.2857142857143" r="22.857142857142854" fill="none" stroke="#B08D57" stroke-width="2.2" stroke-linecap="round" stroke-linejoin="round" opacity="0.7"/>
        
  <text x="400.0" y="835.0" text-anchor="middle" fill="#B08D57" font-family="Jost, Helvetica, Arial, sans-serif" font-size="14.399999999999999" letter-spacing="4.8" style="text-transform:uppercase">Family Room</text>
  <text x="400.0" y="895.0" text-anchor="middle" fill="#2D2D2D" font-family="Georgia, 'Cormorant Garamond', serif" font-size="36.0" font-style="italic">Collected Family Home</text>
  <text x="400.0" y="950.0" text-anchor="middle" fill="rgba(45,45,45,.45)" font-family="Jost, Helvetica, Arial, sans-serif" font-size="10.4" letter-spacing="2">PLACEHOLDER · REPLACE WITH PHOTO · 800×1000</text>
  <g opacity="0.5" transform="translate(730,30) scale(0.7)" fill="none" stroke="#B08D57" stroke-width="2.4" stroke-linecap="round" stroke-linejoin="round">
        <path d="M0 34 L0 2 L16 2 M0 18 L13 18 M0 34 L16 34"/>
        <path d="M26 34 L26 2 L35 24 L44 2 L44 34"/></g>
</svg>